<svg width="56" height="56" viewBox="0 0 56 56" fill="none" xmlns="http://www.w3.org/2000/svg">
<g id="protection 1">
<g id="Icon">
<path id="Vector" d="M46.349 11.6529L29.412 3.84931L29.1496 3.74433C28.3917 3.55177 27.5978 3.55177 26.84 3.74433L26.5775 3.84931L9.64054 11.6529C8.84054 12.0213 8.17036 12.6225 7.7177 13.378C7.26503 14.1335 7.05096 15.008 7.1035 15.8872L7.69839 25.8254C8.03598 31.5415 9.99169 37.0438 13.3374 41.6907C16.6832 46.3376 21.2811 49.9375 26.595 52.0707C27.0404 52.2712 27.5239 52.3727 28.0123 52.3682C28.4765 52.3753 28.9366 52.2797 29.3595 52.0882C34.68 49.9603 39.2852 46.3626 42.6374 41.7153C45.9897 37.0681 47.9506 31.5629 48.2911 25.8429L48.886 15.9047C48.9422 15.0226 48.7299 14.1443 48.277 13.3853C47.8241 12.6263 47.1519 12.0223 46.349 11.6529ZM37.1806 23.9007L27.8373 34.3989C27.6853 34.5728 27.5004 34.7149 27.2931 34.817C27.0859 34.9191 26.8606 34.9792 26.63 34.9938H26.5425C26.1029 34.997 25.6781 34.8346 25.3527 34.5388L18.9314 28.6249C18.5903 28.3093 18.3886 27.8712 18.3705 27.4069C18.3525 26.9426 18.5196 26.4902 18.8352 26.1491C19.1507 25.808 19.5888 25.6063 20.0531 25.5882C20.5174 25.5702 20.9699 25.7373 21.311 26.0529L26.42 30.7595L34.5561 21.5911C34.8684 21.266 35.2942 21.0739 35.7446 21.055C36.1951 21.0361 36.6354 21.1918 36.9739 21.4897C37.3123 21.7875 37.5227 22.2045 37.5613 22.6537C37.5998 23.1029 37.4634 23.5496 37.1806 23.9007Z" fill="white"/>
</g>
</g>
</svg>
