<svg width="48" height="48" viewBox="0 0 48 48" fill="none" xmlns="http://www.w3.org/2000/svg">
<g clip-path="url(#clip0_45_1114)">
<path d="M24 0C10.7413 0 0 10.7413 0 24C0 37.2586 10.7413 47.9999 24 47.9999C37.2586 47.9999 47.9999 37.2586 47.9999 24C47.9999 10.7413 37.2586 0 24 0ZM39.0614 21.28L31.584 28.3306L33.8667 36.512C34.3253 38.1653 33.5147 38.7947 32.0319 37.9094L24 33.0667L15.9573 37.8986C14.4853 38.7839 13.6214 38.1546 14.0373 36.48L16.2453 27.584L9.00263 21.1947C7.71199 20.0533 8.06394 19.136 9.78131 19.136H18.5813L22.7626 9.40803C23.4453 7.82933 24.5332 7.82933 25.1946 9.41865L29.2799 19.136H38.1972C39.9253 19.1467 40.3093 20.1066 39.0614 21.28Z" fill="white"/>
</g>
<defs>
<clipPath id="clip0_45_1114">
<rect width="48" height="48" fill="white"/>
</clipPath>
</defs>
</svg>
