<svg width="48" height="48" viewBox="0 0 48 48" fill="none" xmlns="http://www.w3.org/2000/svg">
<path d="M16.3425 24.5574C22.2922 27.4663 29.7325 22.8481 29.6327 16.0702C29.6281 13.5905 28.6405 11.2137 26.8864 9.461C25.1322 7.70826 22.7547 6.72251 20.275 6.71985C10.2118 6.86298 7.3798 20.3076 16.3425 24.5574Z" fill="white"/>
<path d="M32.0941 27.184L26.1432 25.2029C24.3948 26.3297 22.3587 26.9289 20.2786 26.9289C18.1985 26.9289 16.1625 26.3297 14.414 25.2029L8.45556 27.184C6.86605 27.713 5.48352 28.7292 4.50423 30.0883C3.52493 31.4475 2.99862 33.0806 3 34.7558V38.493C2.99998 39.24 3.29622 39.9566 3.82376 40.4856C4.3513 41.0145 5.06707 41.3127 5.81412 41.3146H34.7357C35.4827 41.3126 36.1985 41.0145 36.726 40.4856C37.2535 39.9566 37.5498 39.24 37.5498 38.493V34.7558C37.5511 33.0806 37.0248 31.4475 36.0455 30.0883C35.0662 28.7292 33.6837 27.713 32.0941 27.184Z" fill="white"/>
<path d="M34.0293 15.7893C34.03 16.3536 33.9194 16.9126 33.7037 17.4341C33.488 17.9556 33.1716 18.4294 32.7725 18.8284C32.6705 18.9345 32.6018 19.068 32.5747 19.2126C32.5475 19.3572 32.5632 19.5066 32.6198 19.6424C32.6764 19.7782 32.7714 19.8945 32.8931 19.9771C33.0149 20.0597 33.1581 20.1049 33.3052 20.1072C33.4043 20.1073 33.5024 20.0878 33.5939 20.0497C33.6853 20.0115 33.7683 19.9556 33.8379 19.8852C34.9149 18.7941 35.5188 17.3228 35.5189 15.7897C35.5189 14.2566 34.915 12.7852 33.838 11.6942C33.7686 11.6241 33.6861 11.5683 33.5952 11.5301C33.5043 11.4919 33.4067 11.472 33.3081 11.4716C33.2095 11.4711 33.1118 11.4901 33.0205 11.5274C32.9292 11.5647 32.8462 11.6197 32.7762 11.6891C32.7062 11.7586 32.6505 11.8411 32.6124 11.9321C32.5743 12.0231 32.5546 12.1206 32.5542 12.2193C32.5539 12.3179 32.573 12.4156 32.6104 12.5068C32.6478 12.5981 32.7029 12.681 32.7724 12.7509C33.1715 13.1498 33.488 13.6235 33.7037 14.1449C33.9193 14.6662 34.03 15.2251 34.0293 15.7893Z" fill="white"/>
<path d="M36.4707 21.5193C36.3681 21.6252 36.2988 21.7587 36.2712 21.9034C36.2436 22.0482 36.2589 22.1979 36.3153 22.334C36.3717 22.4702 36.4667 22.5869 36.5885 22.6697C36.7104 22.7526 36.8539 22.798 37.0012 22.8003C37.0998 22.8004 37.1974 22.7811 37.2884 22.7434C37.3794 22.7056 37.4621 22.6503 37.5317 22.5805C39.319 20.7722 40.3214 18.3322 40.3214 15.7896C40.3214 13.2471 39.3191 10.8071 37.5318 8.99876C37.3902 8.86271 37.2008 8.78761 37.0044 8.78959C36.808 8.79157 36.6202 8.87046 36.4813 9.00933C36.3424 9.14821 36.2635 9.336 36.2615 9.53241C36.2595 9.72881 36.3345 9.91818 36.4705 10.0599C37.978 11.5859 38.8234 13.6445 38.8234 15.7896C38.8235 17.9346 37.9781 19.9933 36.4707 21.5193Z" fill="white"/>
<path d="M41.3544 6.91242C41.2129 6.77618 41.0237 6.70084 40.8273 6.70254C40.6309 6.70425 40.4429 6.78288 40.3039 6.92156C40.1648 7.06024 40.0856 7.24791 40.0833 7.44431C40.081 7.64071 40.1558 7.83018 40.2916 7.97207C42.3486 10.0541 43.5021 12.8629 43.5021 15.7896C43.5022 18.7163 42.3487 21.5252 40.2918 23.6072C40.1894 23.7131 40.1203 23.8466 40.0928 23.9914C40.0654 24.1361 40.0808 24.2856 40.1373 24.4217C40.1937 24.5577 40.2887 24.6743 40.4106 24.7571C40.5324 24.8398 40.6758 24.8852 40.823 24.8875C40.9218 24.8877 41.0196 24.8684 41.1108 24.8305C41.2019 24.7926 41.2847 24.737 41.3542 24.6669C43.6902 22.3028 45.0001 19.1132 45.0002 15.7897C45.0002 12.4662 43.6903 9.2766 41.3544 6.91242Z" fill="white"/>
</svg>
