<svg width="56" height="56" viewBox="0 0 56 56" fill="none" xmlns="http://www.w3.org/2000/svg">
<g id="bank 1" clip-path="url(#clip0_43_2950)">
<g id="Group">
<path id="Vector" d="M0.29342 55.2851C0.599396 55.7256 1.10232 55.9899 1.64057 55.9899H54.3494C54.8876 55.9899 55.3905 55.7256 55.6965 55.2851C56.004 54.843 56.0746 54.2792 55.8856 53.7746C55.2464 52.0654 54.0515 50.566 53.5661 50.0022C53.2553 49.6386 52.8003 49.4287 52.3214 49.4287H3.66856C3.18958 49.4287 2.73467 49.6386 2.42388 50.0022C1.93856 50.566 0.743526 52.0654 0.104345 53.7746C-0.084621 54.2792 -0.0141963 54.843 0.29342 55.2851Z" fill="white"/>
<path id="Vector_2" d="M6.56128 26.3546H16.5126V46.148H6.56128V26.3546Z" fill="white"/>
<path id="Vector_3" d="M23.074 26.3546H32.916V46.148H23.074V26.3546Z" fill="white"/>
<path id="Vector_4" d="M39.4773 26.3546H49.4286V46.148H39.4773V26.3546Z" fill="white"/>
<path id="Vector_5" d="M3.55044 22.591C3.85838 22.9002 4.28694 23.0741 4.71081 23.0741C4.71102 23.0741 4.71135 23.0739 4.71157 23.0739C4.71179 23.0739 4.71212 23.0741 4.71234 23.073H51.2776C51.2778 23.0741 51.2781 23.0739 51.2783 23.0739C51.2785 23.0739 51.2789 23.0741 51.2791 23.0741C51.7029 23.0741 52.1315 22.9003 52.4395 22.591C52.7732 22.2573 55.2676 19.6596 55.9898 16.5128H0C0.722291 19.6596 3.21658 22.2573 3.55044 22.591Z" fill="white"/>
<path id="Vector_6" d="M54.9459 13.232L28.7286 0.173004C28.2672 -0.0576272 27.7226 -0.0576272 27.2613 0.173004L1.04395 13.232H54.9459Z" fill="white"/>
</g>
</g>
<defs>
<clipPath id="clip0_43_2950">
<rect width="55.99" height="55.99" fill="white"/>
</clipPath>
</defs>
</svg>
