<svg width="37" height="37" viewBox="0 0 37 37" fill="none" xmlns="http://www.w3.org/2000/svg">
<g id="globe 1" clip-path="url(#clip0_154_991)">
<path id="Vector" d="M18.2075 0.0108643C14.625 0.0108643 11.123 1.07319 8.14429 3.06349C5.16559 5.0538 2.84398 7.88269 1.47303 11.1924C0.102086 14.5022 -0.256615 18.1442 0.442287 21.6578C1.14119 25.1714 2.8663 28.3989 5.39948 30.932C7.93266 33.4652 11.1601 35.1903 14.6737 35.8892C18.1874 36.5881 21.8293 36.2294 25.1391 34.8585C28.4488 33.4875 31.2777 31.1659 33.268 28.1872C35.2583 25.2085 36.3207 21.7065 36.3207 18.1241C36.3155 13.3217 34.4055 8.7176 31.0097 5.32184C27.6139 1.92608 23.0098 0.0160583 18.2075 0.0108643ZM23.0709 10.5769H13.3441C14.6252 8.0475 16.2631 5.71526 18.2075 3.65162C20.1526 5.71467 21.7905 8.04703 23.0709 10.5769ZM24.2784 13.5958C24.7423 15.0609 24.9845 16.5873 24.9969 18.1241C24.9845 19.6609 24.7423 21.1872 24.2784 22.6524H12.1335C11.6696 21.1872 11.4274 19.6609 11.415 18.1241C11.4274 16.5873 11.6696 15.0609 12.1335 13.5958H24.2784ZM14.2829 3.56709C12.5435 5.69507 11.108 8.05418 10.0173 10.5769H5.15538C7.15667 7.13001 10.4364 4.61125 14.2829 3.56709ZM3.11311 18.1241C3.11298 16.588 3.34764 15.0609 3.80896 13.5958H8.99991C8.6086 15.0737 8.40573 16.5952 8.39613 18.1241C8.40573 19.6529 8.6086 21.1744 8.99991 22.6524H3.80896C3.34764 21.1872 3.11298 19.6601 3.11311 18.1241ZM5.15538 25.6712H10.0173C11.108 28.194 12.5435 30.5531 14.2829 32.6811C10.4364 31.6369 7.15667 29.1181 5.15538 25.6712ZM13.3441 25.6712H23.0709C21.7897 28.2006 20.1518 30.5329 18.2075 32.5965C16.2624 30.5335 14.6244 28.2011 13.3441 25.6712ZM22.1395 32.6811C23.8763 30.5526 25.3093 28.1935 26.3976 25.6712H31.2595C29.26 29.1166 25.9833 31.6351 22.1395 32.6811ZM33.3018 18.1241C33.3019 19.6601 33.0673 21.1872 32.6059 22.6524H27.415C27.8063 21.1744 28.0092 19.6529 28.0188 18.1241C28.0092 16.5952 27.8063 15.0737 27.415 13.5958H32.6029C33.0653 15.0608 33.301 16.5878 33.3018 18.1241ZM26.3976 10.5769C25.3093 8.05462 23.8763 5.69552 22.1395 3.56709C25.9833 4.61302 29.26 7.13157 31.2595 10.5769H26.3976Z" fill="white"/>
</g>
<defs>
<clipPath id="clip0_154_991">
<rect width="36.2264" height="36.2264" fill="white" transform="translate(0.0942383 0.0108643)"/>
</clipPath>
</defs>
</svg>
