<svg width="24" height="24" viewBox="0 0 24 24" fill="none" xmlns="http://www.w3.org/2000/svg">
<g id="right-arrow 1">
<g id="Group">
<g id="Group_2">
<path id="Vector" d="M20.3269 11.5433C20.3267 11.5431 20.3266 11.5429 20.3263 11.5427L16.9552 8.18787C16.7027 7.93655 16.2942 7.93748 16.0428 8.19006C15.7915 8.44261 15.7924 8.85109 16.045 9.10245L18.3083 11.3548H4.64516C4.28884 11.3548 4 11.6437 4 12C4 12.3563 4.28884 12.6452 4.64516 12.6452H18.3083L16.045 14.8976C15.7925 15.1489 15.7915 15.5574 16.0428 15.8099C16.2942 16.0626 16.7027 16.0634 16.9553 15.8121L20.3264 12.4573C20.3266 12.4571 20.3267 12.4569 20.3269 12.4567C20.5796 12.2045 20.5788 11.7947 20.3269 11.5433Z" fill="white"/>
</g>
</g>
</g>
</svg>
