<svg width="38" height="37" viewBox="0 0 38 37" fill="none" xmlns="http://www.w3.org/2000/svg">
<g id="analyse 1" clip-path="url(#clip0_154_986)">
<path id="Vector" d="M34.9217 36.1799L25.5345 26.7928C22.8447 28.9995 19.5043 30.1995 15.9813 30.1995C7.65828 30.1995 0.886963 23.4282 0.886963 15.1052C0.886963 6.78219 7.65828 0.0108643 15.9813 0.0108643C19.4409 0.0108643 22.6228 1.19275 25.1707 3.15803L23.1964 5.44483C21.1813 3.93539 18.6877 3.02973 15.9813 3.02973C9.32319 3.02973 3.90583 8.44709 3.90583 15.1052C3.90583 16.8667 4.29376 18.5377 4.97602 20.0471L12.8522 10.595L18.1564 15.8992L31.4334 0.524072L33.7187 2.49841L18.3179 20.3309L13.056 15.069L6.64847 22.758C8.86432 25.4569 12.2258 27.1822 15.9813 27.1822C19.207 27.1822 22.2394 25.9263 24.5202 23.6456C26.8009 21.3648 28.0568 18.3324 28.0568 15.1067C28.0568 14.6524 28.0266 14.2071 27.9783 13.7663L30.4643 10.8878C30.8553 12.2282 31.0756 13.6426 31.0756 15.1082C31.0756 18.6312 29.8756 21.9716 27.6688 24.6614L37.056 34.0486L34.9217 36.1829V36.1799Z" fill="white"/>
</g>
<defs>
<clipPath id="clip0_154_986">
<rect width="36.2264" height="36.2264" fill="white" transform="translate(0.886963 0.0108643)"/>
</clipPath>
</defs>
</svg>
