<svg width="37" height="37" viewBox="0 0 37 37" fill="none" xmlns="http://www.w3.org/2000/svg">
<g id="growth-chart-invest 1" clip-path="url(#clip0_154_988)">
<path id="Vector" d="M27.3471 24.1618C27.3471 24.7339 27.7561 25.2154 28.3207 25.3105L32.9093 26.0743C34.935 26.4124 36.4037 28.1482 36.4037 30.1995C36.4037 32.6961 34.372 34.7278 31.8754 34.7278V36.2373H28.8565V34.7278C26.3599 34.7278 24.3282 32.6961 24.3282 30.1995H27.3471C27.3471 31.0328 28.0233 31.709 28.8565 31.709H31.8754C32.7086 31.709 33.3848 31.0328 33.3848 30.1995C33.3848 29.6275 32.9758 29.146 32.4112 29.0509L27.8225 28.2871C25.7969 27.949 24.3282 26.2131 24.3282 24.1618C24.3282 21.6652 26.3599 19.6335 28.8565 19.6335V18.1241H31.8754V19.6335C34.372 19.6335 36.4037 21.6652 36.4037 24.1618H33.3848C33.3848 23.3286 32.7086 22.6524 31.8754 22.6524H28.8565C28.0233 22.6524 27.3471 23.3286 27.3471 24.1618ZM33.3848 0.0108643H25.8376V3.02973H31.2505L23.5735 10.7067L14.5169 1.65011L0.358398 15.8086L2.49274 17.9429L14.5169 5.91879L23.5735 14.9754L33.3848 5.16407V10.5769H36.4037V3.02973C36.4037 1.36483 35.0497 0.0108643 33.3848 0.0108643ZM1.6867 36.2373H4.70557V19.9988L1.6867 23.0177V36.2373ZM16.781 36.2373H19.7999V15.472L16.781 12.4531V36.2373ZM9.23387 36.2373H12.2527V12.4531L9.23387 15.472V36.2373Z" fill="white"/>
</g>
<defs>
<clipPath id="clip0_154_988">
<rect width="36.2264" height="36.2264" fill="white" transform="translate(0.358398 0.0108643)"/>
</clipPath>
</defs>
</svg>
