<svg width="40" height="40" viewBox="0 0 40 40" fill="none" xmlns="http://www.w3.org/2000/svg">
<g clip-path="url(#clip0_45_1054)">
<path d="M15.4166 0H2.91656C1.30829 0 0 1.30829 0 2.91656V10.4166C0 12.0251 1.30829 13.3334 2.91656 13.3334H15.4166C17.0251 13.3334 18.3334 12.0251 18.3334 10.4166V2.91656C18.3334 1.30829 17.0251 0 15.4166 0Z" fill="white"/>
<path d="M15.4166 16.6665H2.91656C1.30829 16.6665 0 17.9748 0 19.5834V37.0834C0 38.6917 1.30829 39.9999 2.91656 39.9999H15.4166C17.0251 39.9999 18.3334 38.6917 18.3334 37.0834V19.5834C18.3334 17.9748 17.0251 16.6665 15.4166 16.6665Z" fill="white"/>
<path d="M37.0834 26.6665H24.5834C22.9748 26.6665 21.6665 27.9748 21.6665 29.5834V37.0834C21.6665 38.6917 22.9748 39.9999 24.5834 39.9999H37.0834C38.6917 39.9999 39.9999 38.6917 39.9999 37.0834V29.5834C39.9999 27.9748 38.6917 26.6665 37.0834 26.6665Z" fill="white"/>
<path d="M37.0834 0H24.5834C22.9748 0 21.6665 1.30829 21.6665 2.91656V20.4166C21.6665 22.0251 22.9748 23.3334 24.5834 23.3334H37.0834C38.6917 23.3334 39.9999 22.0251 39.9999 20.4166V2.91656C39.9999 1.30829 38.6917 0 37.0834 0Z" fill="white"/>
</g>
<defs>
<clipPath id="clip0_45_1054">
<rect width="40" height="40" fill="white"/>
</clipPath>
</defs>
</svg>
