<svg width="16" height="16" viewBox="0 0 16 16" fill="none" xmlns="http://www.w3.org/2000/svg">
<g id="send 1" clip-path="url(#clip0_45_1455)">
<path id="Vector" d="M14.734 7.04115L1.8351 0.748988C1.72416 0.694875 1.60235 0.666748 1.47892 0.666748C1.03024 0.666748 0.666504 1.03048 0.666504 1.47916V1.50261C0.666504 1.61162 0.679871 1.72023 0.706311 1.82599L1.94362 6.77521C1.97742 6.91041 2.09172 7.01028 2.2302 7.02568L7.66857 7.62995C7.85717 7.65088 7.99984 7.81028 7.99984 8.00008C7.99984 8.18988 7.85717 8.34928 7.66857 8.37021L2.2302 8.97448C2.09172 8.98988 1.97742 9.08975 1.94362 9.22495L0.706311 14.1741C0.679871 14.2799 0.666504 14.3885 0.666504 14.4975V14.521C0.666504 14.9697 1.03024 15.3334 1.47892 15.3334C1.60235 15.3334 1.72416 15.3053 1.8351 15.2511L14.734 8.95901C15.1006 8.78022 15.3332 8.40801 15.3332 8.00008C15.3332 7.59215 15.1006 7.21995 14.734 7.04115Z" fill="white"/>
</g>
<defs>
<clipPath id="clip0_45_1455">
<rect width="16" height="16" fill="white"/>
</clipPath>
</defs>
</svg>
