<svg width="38" height="50" viewBox="0 0 38 50" fill="none" xmlns="http://www.w3.org/2000/svg">
<path d="M18.5451 42.612C21.6556 42.612 24.2598 41.5631 26.3576 39.4653C28.5277 37.2951 29.6128 34.6548 29.6128 31.5443C29.6128 28.3614 29.1788 25.2509 28.3107 22.2127C26.0682 25.1785 22.4875 27.1678 17.5685 28.1806C13.2282 29.121 11.0581 31.5081 11.0581 35.342C11.0581 37.3675 11.7815 39.1036 13.2282 40.5504C14.675 41.9248 16.4473 42.612 18.5451 42.612ZM22.6683 0.185776C27.298 3.94735 30.951 8.54081 33.6275 13.9662C36.3764 19.3192 37.7508 25.0339 37.7508 31.1103C37.7508 36.1739 35.9424 40.5142 32.3255 44.1311C28.7086 47.748 24.3321 49.5564 19.1961 49.5564C14.0601 49.5564 9.68369 47.748 6.06679 44.1311C2.44989 40.5142 0.641441 36.1739 0.641441 31.1103C0.641441 23.2978 3.1371 16.4256 8.12842 10.4939V11.362C8.12842 13.7491 8.92414 15.7746 10.5156 17.4384C12.107 19.1022 14.0963 19.934 16.4835 19.934C18.7983 19.934 20.6791 19.1383 22.1258 17.5469C23.6449 15.8831 24.4045 13.8215 24.4045 11.362C24.4045 9.91523 24.2598 8.25146 23.9704 6.37067C23.6811 4.48988 23.3917 3.00696 23.1024 1.92189L22.6683 0.185776Z" fill="white"/>
</svg>
